<?xml version="1.0" encoding="UTF-8" standalone="no"?>
<!-- Created with Inkscape (http://www.inkscape.org/) -->

<svg
   xmlns:dc="http://purl.org/dc/elements/1.1/"
   xmlns:cc="http://creativecommons.org/ns#"
   xmlns:rdf="http://www.w3.org/1999/02/22-rdf-syntax-ns#"
   xmlns:svg="http://www.w3.org/2000/svg"
   xmlns="http://www.w3.org/2000/svg"
   xmlns:sodipodi="http://sodipodi.sourceforge.net/DTD/sodipodi-0.dtd"
   xmlns:inkscape="http://www.inkscape.org/namespaces/inkscape"
   width="198.34375"
   height="176.0625"
   id="svg3175"
   version="1.1"
   inkscape:version="0.48.1 "
   sodipodi:docname="Coccinelle.svg">
  <defs
     id="defs3177" />
  <sodipodi:namedview
     id="base"
     pagecolor="#ffffff"
     bordercolor="#666666"
     borderopacity="1.0"
     inkscape:pageopacity="0.0"
     inkscape:pageshadow="2"
     inkscape:zoom="4.543841"
     inkscape:cx="99.171875"
     inkscape:cy="88.03125"
     inkscape:document-units="px"
     inkscape:current-layer="layer1"
     showgrid="false"
     inkscape:window-width="1280"
     inkscape:window-height="1002"
     inkscape:window-x="-8"
     inkscape:window-y="-8"
     inkscape:window-maximized="1"
     fit-margin-top="0"
     fit-margin-left="0"
     fit-margin-right="0"
     fit-margin-bottom="0">
    <inkscape:grid
       type="xygrid"
       id="grid3301"
       empspacing="5"
       visible="true"
       enabled="true"
       snapvisiblegridlinesonly="true" />
  </sodipodi:namedview>
  <metadata
     id="metadata3180">
    <rdf:RDF>
      <cc:Work
         rdf:about="">
        <dc:format>image/svg+xml</dc:format>
        <dc:type
           rdf:resource="http://purl.org/dc/dcmitype/StillImage" />
        <dc:title></dc:title>
      </cc:Work>
    </rdf:RDF>
  </metadata>
  <g
     inkscape:label="Calque 1"
     inkscape:groupmode="layer"
     id="layer1"
     transform="translate(-301.46875,-377.78125)"
     sodipodi:insensitive="true">
    <g
       id="g4089">
      <path
         sodipodi:nodetypes="zzzzz"
         inkscape:connector-curvature="0"
         id="path10860"
         d="m 400.64778,405.06103 c -41.47368,0 -57.02632,31.10728 -57.02632,67.3991 0,36.29181 15.55264,67.39909 57.02632,67.39909 41.47368,0 57.02631,-31.10728 57.02631,-67.39909 0,-36.29182 -15.55263,-67.3991 -57.02631,-67.3991 z"
         style="fill:#e20909;stroke:#000000;stroke-width:3;stroke-linecap:butt;stroke-linejoin:miter;stroke-miterlimit:4;stroke-opacity:1;stroke-dasharray:none" />
      <path
         sodipodi:nodetypes="cc"
         inkscape:connector-curvature="0"
         id="path10858"
         d="m 400.64778,405.06103 0,134.79819"
         style="fill:none;stroke:#000000;stroke-width:3;stroke-linecap:butt;stroke-linejoin:miter;stroke-miterlimit:4;stroke-opacity:1;stroke-dasharray:none" />
      <path
         sodipodi:nodetypes="cccc"
         inkscape:connector-curvature="0"
         id="path10935"
         d="m 374.72673,410.24558 51.8421,0 c 0,-10.3691 -5.18421,-20.73818 -25.92105,-20.73818 -20.73684,0 -25.92105,10.36908 -25.92105,20.73818 z"
         style="fill:#000000;stroke:#000000;stroke-width:3;stroke-linecap:butt;stroke-linejoin:miter;stroke-miterlimit:4;stroke-opacity:1;stroke-dasharray:none" />
      <path
         inkscape:transform-center-y="12.961361"
         inkscape:transform-center-x="12.960507"
         inkscape:connector-curvature="0"
         id="path10812-9"
         d="m 375.32291,451.17757 c 0,6.29942 -5.10623,11.406 -11.40526,11.406 -6.29903,0 -11.40526,-5.10658 -11.40526,-11.406 0,-6.2994 5.10623,-11.406 11.40526,-11.406 6.29903,0 11.40526,5.1066 11.40526,11.406 z"
         style="fill:#000000;fill-opacity:1;stroke:#000000;stroke-width:3;stroke-linejoin:round;stroke-miterlimit:4;stroke-opacity:1;display:inline" />
      <path
         inkscape:transform-center-y="12.961359"
         inkscape:transform-center-x="12.960511"
         inkscape:connector-curvature="0"
         id="path10812-9-9"
         d="m 394.91922,478.75935 c 0,6.29942 -5.10623,11.406 -11.40525,11.406 -6.29904,0 -11.40527,-5.10658 -11.40527,-11.406 0,-6.29939 5.10623,-11.406 11.40527,-11.406 6.29902,0 11.40525,5.10661 11.40525,11.406 z"
         style="fill:#000000;fill-opacity:1;stroke:#000000;stroke-width:3;stroke-linejoin:round;stroke-miterlimit:4;stroke-opacity:1;display:inline" />
      <path
         inkscape:transform-center-y="12.961357"
         inkscape:transform-center-x="12.96051"
         inkscape:connector-curvature="0"
         id="path10812-9-2"
         d="m 384.16199,509.55555 c 0,6.29942 -5.10624,11.406 -11.40526,11.406 -6.29903,0 -11.40527,-5.10658 -11.40527,-11.406 0,-6.29939 5.10624,-11.406 11.40527,-11.406 6.29902,0 11.40526,5.10661 11.40526,11.406 z"
         style="fill:#000000;fill-opacity:1;stroke:#000000;stroke-width:3;stroke-linejoin:round;stroke-miterlimit:4;stroke-opacity:1;display:inline" />
      <path
         inkscape:connector-curvature="0"
         id="path10812"
         d="m 414.64514,434.61294 c 0,7.73112 -6.26674,13.99828 -13.99736,13.99828 -7.73064,0 -13.99737,-6.26716 -13.99737,-13.99828 0,-7.73106 6.26673,-13.99827 13.99737,-13.99827 7.73062,0 13.99736,6.26721 13.99736,13.99827 z"
         style="fill:#000000;fill-opacity:1;stroke:#000000;stroke-width:3;stroke-linejoin:round;stroke-miterlimit:4;stroke-opacity:1" />
      <path
         inkscape:transform-center-y="12.961359"
         inkscape:transform-center-x="12.960503"
         inkscape:connector-curvature="0"
         id="path10812-9-9-2"
         d="m 429.18686,478.75935 c 0,6.29942 -5.10624,11.406 -11.40526,11.406 -6.29903,0 -11.40527,-5.10658 -11.40527,-11.406 0,-6.29939 5.10624,-11.406 11.40527,-11.406 6.29902,0 11.40526,5.10661 11.40526,11.406 z"
         style="fill:#000000;fill-opacity:1;stroke:#000000;stroke-width:3;stroke-linejoin:round;stroke-miterlimit:4;stroke-opacity:1;display:inline" />
      <path
         inkscape:transform-center-y="12.961361"
         inkscape:transform-center-x="12.960503"
         inkscape:connector-curvature="0"
         id="path10812-9-8"
         d="m 448.80909,451.17757 c 0,6.29942 -5.10623,11.406 -11.40526,11.406 -6.29903,0 -11.40526,-5.10658 -11.40526,-11.406 0,-6.2994 5.10623,-11.406 11.40526,-11.406 6.29903,0 11.40526,5.1066 11.40526,11.406 z"
         style="fill:#000000;fill-opacity:1;stroke:#000000;stroke-width:3;stroke-linejoin:round;stroke-miterlimit:4;stroke-opacity:1;display:inline" />
      <path
         inkscape:transform-center-y="12.961357"
         inkscape:transform-center-x="12.960503"
         inkscape:connector-curvature="0"
         id="path10812-9-2-3"
         d="m 439.94409,509.55555 c 0,6.29942 -5.10623,11.406 -11.40526,11.406 -6.29903,0 -11.40526,-5.10658 -11.40526,-11.406 0,-6.29939 5.10623,-11.406 11.40526,-11.406 6.29903,0 11.40526,5.10661 11.40526,11.406 z"
         style="fill:#000000;fill-opacity:1;stroke:#000000;stroke-width:3;stroke-linejoin:round;stroke-miterlimit:4;stroke-opacity:1;display:inline" />
      <path
         sodipodi:nodetypes="ccc"
         inkscape:connector-curvature="0"
         id="path10937"
         d="m 338.43726,379.1383 10.36842,5.18455 15.55262,31.10728"
         style="fill:none;stroke:#000000;stroke-width:3;stroke-linecap:butt;stroke-linejoin:miter;stroke-miterlimit:4;stroke-opacity:1;stroke-dasharray:none" />
      <path
         sodipodi:nodetypes="ccc"
         inkscape:connector-curvature="0"
         id="path10937-1"
         d="m 452.48988,501.80466 10.36842,10.36909 -5.18421,41.47636"
         style="fill:none;stroke:#000000;stroke-width:3;stroke-linecap:butt;stroke-linejoin:miter;stroke-miterlimit:4;stroke-opacity:1;stroke-dasharray:none;display:inline" />
      <path
         sodipodi:nodetypes="ccc"
         inkscape:connector-curvature="0"
         id="path10937-7"
         d="m 452.48988,441.35285 36.28947,15.55364 10.36842,-5.18455"
         style="fill:none;stroke:#000000;stroke-width:3;stroke-linecap:butt;stroke-linejoin:miter;stroke-miterlimit:4;stroke-opacity:1;stroke-dasharray:none;display:inline" />
      <path
         sodipodi:nodetypes="ccc"
         inkscape:connector-curvature="0"
         id="path10937-8"
         d="m 462.8583,379.1383 -10.36842,5.18455 -15.55263,31.10728"
         style="fill:none;stroke:#000000;stroke-width:3;stroke-linecap:butt;stroke-linejoin:miter;stroke-miterlimit:4;stroke-opacity:1;stroke-dasharray:none;display:inline" />
      <path
         sodipodi:nodetypes="ccc"
         inkscape:connector-curvature="0"
         id="path10937-7-2"
         d="m 348.80568,441.35285 -36.28947,15.55364 -10.36843,-5.18455"
         style="fill:none;stroke:#000000;stroke-width:3;stroke-linecap:butt;stroke-linejoin:miter;stroke-miterlimit:4;stroke-opacity:1;stroke-dasharray:none;display:inline" />
      <path
         sodipodi:nodetypes="ccc"
         inkscape:connector-curvature="0"
         id="path10937-1-1"
         d="m 348.80568,501.80466 -10.36842,10.36909 5.1842,41.47636"
         style="fill:none;stroke:#000000;stroke-width:3;stroke-linecap:butt;stroke-linejoin:miter;stroke-miterlimit:4;stroke-opacity:1;stroke-dasharray:none;display:inline" />
      <path
         inkscape:transform-center-y="2.5922647"
         inkscape:transform-center-x="2.5920877"
         inkscape:connector-curvature="0"
         id="path10812-9-2-1"
         d="m 387.19585,395.41778 c 0,1.25988 -1.02125,2.28119 -2.28105,2.28119 -1.2598,0 -2.28105,-1.02131 -2.28105,-2.28119 0,-1.25988 1.02125,-2.2812 2.28105,-2.2812 1.2598,0 2.28105,1.02132 2.28105,2.2812 z"
         style="fill:#e20909;fill-opacity:1;stroke:#000000;stroke-width:0.60000002;stroke-linejoin:round;stroke-miterlimit:4;stroke-opacity:1;display:inline" />
      <path
         inkscape:transform-center-y="2.5922647"
         inkscape:transform-center-x="2.5920821"
         inkscape:connector-curvature="0"
         id="path10812-9-2-1-7"
         d="m 418.30112,395.41778 c 0,1.25988 -1.02125,2.28119 -2.28105,2.28119 -1.25982,0 -2.28106,-1.02131 -2.28106,-2.28119 0,-1.25988 1.02124,-2.2812 2.28106,-2.2812 1.2598,0 2.28105,1.02132 2.28105,2.2812 z"
         style="fill:#e20909;fill-opacity:1;stroke:#000000;stroke-width:0.60000002;stroke-linejoin:round;stroke-miterlimit:4;stroke-opacity:1;display:inline" />
    </g>
  </g>
</svg>
